<?xml version="1.0" standalone="no"?>
<!DOCTYPE svg PUBLIC "-//W3C//DTD SVG 20010904//EN"
 "http://www.w3.org/TR/2001/REC-SVG-20010904/DTD/svg10.dtd">
<svg version="1.0" xmlns="http://www.w3.org/2000/svg"
 width="405.000000pt" height="405.000000pt" viewBox="0 0 405.000000 405.000000"
 preserveAspectRatio="xMidYMid meet">
<metadata>
Created by potrace 1.11, written by Peter Selinger 2001-2013
</metadata>
<g transform="translate(0.000000,405.000000) scale(0.100000,-0.100000)"
fill="#000000" stroke="none">
<path d="M1944 3665 c-87 -26 -133 -65 -176 -149 -33 -63 -30 -178 6 -234 14
-23 23 -42 20 -42 -15 0 75 -64 115 -82 40 -19 128 -26 171 -16 30 8 88 39
111 61 13 12 27 21 32 19 5 -1 6 2 2 8 -3 5 0 13 8 16 7 2 14 10 15 17 0 7 8
32 17 57 20 53 22 100 7 155 -6 22 -13 45 -14 50 -1 6 -14 23 -28 39 -14 16
-23 34 -22 40 2 6 0 8 -4 3 -4 -4 -17 1 -28 12 -48 43 -164 66 -232 46z"/>
<path d="M588 3005 c-26 -7 -49 -10 -52 -7 -4 3 -6 1 -6 -5 0 -6 -12 -14 -27
-18 -14 -3 -37 -15 -51 -25 -13 -11 -29 -17 -35 -13 -5 3 -8 2 -5 -3 3 -5 -16
-27 -43 -49 -26 -22 -48 -46 -48 -52 -1 -7 -5 -13 -10 -13 -4 0 -23 -32 -41
-70 -46 -101 -57 -210 -33 -315 4 -16 7 -33 7 -37 1 -3 4 -10 9 -14 4 -4 7
-14 7 -21 0 -8 14 -34 30 -59 17 -24 28 -44 25 -44 -3 0 13 -18 37 -41 58 -55
141 -105 207 -125 62 -18 212 -21 254 -5 16 6 33 9 38 5 5 -3 9 -1 9 4 0 8 32
22 60 26 3 1 16 11 30 24 13 12 30 22 37 22 7 0 13 3 13 8 0 4 20 27 45 52 24
25 44 50 45 56 0 5 9 20 20 32 12 12 19 22 16 22 -3 0 5 28 18 63 19 51 22 77
19 147 -3 77 -8 126 -13 140 -1 3 -2 8 -1 13 0 4 -4 7 -10 7 -6 0 -9 7 -5 15
3 8 2 15 -2 15 -7 0 -40 55 -45 75 -4 18 -102 106 -147 133 -25 14 -48 30 -51
35 -3 5 -8 8 -10 6 -2 -1 -15 1 -29 5 -70 22 -200 27 -262 11z"/>
<path d="M3255 3005 c-27 -6 -68 -19 -89 -28 -49 -21 -136 -84 -156 -111 -8
-12 -24 -31 -35 -42 -11 -12 -21 -28 -23 -35 -2 -8 -7 -16 -10 -19 -4 -3 -8
-9 -9 -15 -2 -5 -12 -37 -24 -69 -23 -67 -28 -182 -9 -254 21 -84 124 -250
156 -252 6 0 17 -7 24 -15 13 -15 49 -34 131 -68 51 -21 222 -22 285 -2 59 20
134 57 134 67 0 5 6 8 13 8 7 0 18 9 25 20 7 12 17 18 23 15 5 -4 8 -1 7 7 -2
7 3 12 10 10 8 -1 11 2 8 7 -4 5 4 17 16 25 12 9 19 16 14 16 -5 0 -2 8 6 18
9 9 19 27 22 40 4 12 11 22 15 22 4 0 8 6 8 13 1 6 9 41 18 76 20 74 16 181
-9 252 -19 56 -61 132 -81 149 -8 7 -12 16 -9 21 3 5 0 8 -8 7 -7 -2 -12 3
-10 10 1 8 -1 11 -6 8 -5 -3 -20 6 -33 20 -28 31 -116 77 -179 94 -61 17 -164
19 -225 5z"/>
<path d="M1680 2939 c-19 -4 -38 -6 -41 -3 -4 2 -30 -18 -58 -44 -28 -27 -54
-46 -57 -43 -3 3 -4 2 -3 -4 2 -5 -9 -36 -24 -67 -15 -31 -42 -105 -61 -165
-88 -283 -136 -382 -224 -464 -35 -33 -67 -57 -73 -54 -5 4 -9 2 -9 -4 0 -13
-92 -46 -155 -56 -27 -5 -52 -9 -55 -10 -27 -8 -353 -88 -370 -90 -8 -1 -22
-5 -30 -8 -52 -21 -131 -48 -136 -47 -4 1 -10 -2 -13 -7 -3 -5 -36 -28 -73
-51 -61 -40 -106 -83 -180 -170 -14 -18 -24 -32 -22 -32 8 0 -28 -65 -40 -72
-6 -4 -8 -8 -4 -8 3 0 -2 -25 -13 -56 -28 -78 -33 -122 -32 -254 0 -156 14
-242 53 -345 6 -16 11 -31 11 -32 -1 -4 44 -98 49 -103 3 -3 23 -32 45 -64 93
-138 196 -212 356 -255 123 -34 191 -41 354 -42 129 0 189 6 305 31 128 28
121 26 164 44 21 9 42 13 47 10 5 -3 9 -2 9 3 0 8 47 33 63 33 5 0 22 9 38 21
16 11 29 17 29 12 0 -4 4 -3 8 2 8 13 74 60 83 60 3 0 18 15 33 33 16 18 33
29 39 25 7 -3 9 -3 5 2 -4 4 5 22 20 40 53 63 62 75 62 88 0 7 4 17 9 23 17
17 39 122 35 167 -5 64 -7 70 -32 90 -12 10 -20 23 -16 28 3 5 2 9 -3 8 -4 -1
-21 4 -38 12 -22 10 -82 13 -230 14 -183 0 -203 2 -240 21 -58 30 -94 104
-100 206 -4 73 -3 79 28 125 32 48 132 127 148 117 5 -3 9 -1 9 4 0 6 12 15
28 21 32 14 56 28 100 59 17 13 32 21 32 17 0 -3 46 41 103 99 106 108 137
142 137 151 0 12 54 111 64 117 6 4 7 8 3 8 -4 0 -3 8 2 19 17 32 61 193 69
251 14 106 4 345 -17 420 -19 68 -65 147 -91 157 -41 17 -63 20 -100 12z"/>
<path d="M2292 2924 c-12 -8 -22 -12 -22 -7 0 4 -15 -15 -33 -42 -98 -147
-108 -490 -21 -723 13 -37 26 -71 27 -77 1 -5 4 -12 7 -15 3 -3 15 -26 28 -52
13 -27 41 -70 63 -98 22 -27 38 -50 36 -50 -3 0 16 -21 42 -48 25 -26 49 -46
53 -44 4 1 10 -4 15 -11 4 -7 24 -24 43 -37 19 -13 37 -27 40 -30 3 -3 21 -14
40 -24 19 -11 37 -22 40 -26 3 -3 24 -14 48 -25 40 -17 154 -95 139 -95 -3 0
5 -11 19 -25 14 -14 22 -30 19 -35 -3 -6 -2 -10 3 -10 28 0 10 -176 -24 -229
-51 -80 -98 -93 -311 -86 -215 6 -253 -5 -299 -89 -22 -40 -19 -132 6 -200 12
-30 21 -58 21 -61 0 -2 11 -17 24 -31 14 -15 24 -29 22 -31 -5 -5 94 -103 104
-103 5 0 9 -4 9 -9 0 -5 9 -13 20 -16 11 -4 17 -11 14 -17 -4 -6 -2 -8 3 -5 6
4 21 -1 34 -11 13 -10 48 -29 77 -42 28 -14 52 -27 52 -30 0 -3 8 -6 18 -7 9
-1 35 -10 57 -19 22 -10 43 -17 46 -16 4 1 22 -4 40 -9 162 -51 388 -63 629
-34 125 15 287 83 355 149 25 23 47 41 50 39 3 -2 3 0 0 3 -4 6 11 26 80 107
8 9 15 18 14 20 -1 1 16 35 36 75 20 40 48 117 62 170 23 85 26 118 27 262 1
149 -1 172 -23 235 -26 78 -67 160 -93 189 -10 11 -18 23 -18 27 0 5 -23 30
-52 56 -29 26 -63 58 -75 70 -13 13 -26 23 -28 23 -3 0 -38 16 -78 37 -39 20
-74 37 -77 38 -3 1 -32 9 -65 19 -33 10 -71 20 -85 23 -14 2 -41 8 -60 14 -19
6 -48 13 -65 16 -16 2 -35 9 -41 14 -6 5 -13 7 -15 4 -3 -2 -22 0 -43 6 -45
12 -58 15 -147 33 -37 7 -71 16 -78 20 -6 4 -20 9 -31 11 -57 11 -220 151
-204 176 3 5 1 9 -4 9 -9 0 -49 82 -54 110 -2 8 -6 17 -10 20 -3 3 -34 88 -68
189 -34 101 -68 197 -76 213 -8 15 -12 28 -9 28 5 0 -11 18 -68 78 -48 50
-140 68 -185 36z"/>
</g>
</svg>
